#!OML:ASF E:/inclinewalkrobotboard/Project1/Captureday1/Session1/subject1.ASF
:FULLY-SPECIFIED
:DEGREES
263
root 0 0 0 -2.3227339039812667 -4.324892192937721 0.45920990716514104
lowerback 7.7375904654879575 1.4026477667107586 -2.6154039275907928
upperback 1.6386767741171133 1.7118406408449518 0.009829767152782054
thorax -2.688892017909183 0.9017276925305086 1.3851299652168039
lowerneck -9.70213915395654 -5.509014716611812 -6.198669361665265
upperneck 31.530456415707324 -8.65347511104354 5.780739914054246
head 11.742377844433534 -3.9395460320754587 1.9063262288740057
rclavicle -1.2393725692456989E-15 9.444000228411053E-16
rhumerus -7.144084232936322 0.5560969434665828 -79.24959482720298
rradius 47.74513826406421
rwrist -20.563254043872046
rhand -41.92769833853564 16.223108809105817
rfingers 7.125019999999935
rthumb -14.768637670610257 -13.188440797224455
lclavicle -5.2949737911974856E-15 -1.9873127725770225E-16
lhumerus -29.955431625284007 10.940830469662373 78.86299413793724
lradius 25.08317478107042
lwrist -4.401777075391731
lhand -23.4964199944982 22.117921263966974
lfingers 7.125019999999946
lthumb 2.961937039510023 52.04990784747772
rfemur -23.270083020570517 4.165093185195367 31.021081376379193
rtibia 56.19925926150791
rfoot -7.798618108408684 -8.586109005191563
rtoes 7.455671301728385
lfemur -18.728045422219346 1.6933670307783473 -22.100397349616756
ltibia 43.39603229465692
lfoot -5.788031140728274 -9.868549854921488
ltoes -0.5535651487343785
264
root 0 0 0 -2.3032490197686513 -4.283883372410077 0.4626628337120791
lowerback 7.737020096992038 1.415069205792771 -2.610264854721839
upperback 1.6589551184532811 1.7289121054052472 0.006298626386556094
thorax -2.6669139143945 0.910697287627732 1.3775885856572585
lowerneck -9.672068093811946 -5.510085427881381 -6.214474276051023
upperneck 31.486716167120477 -8.6512447094871 5.810091226800964
head 11.729831084016315 -3.939497331663908 1.9182742223377631
rclavicle -1.0848049839450304E-15 8.736931727574264E-16
rhumerus -7.052166950982677 0.4904700778313962 -79.22134817767432
rradius 47.73516790055379
rwrist -20.47807922160412
rhand -41.96232074731438 16.28650880737217
rfingers 7.125019999999936
rthumb -14.800547375493565 -13.123157779991221
lclavicle -5.1872420644518086E-15 -3.251318875939422E-16
lhumerus -29.93744760834749 10.920449058926234 78.89600056017083
lradius 25.090494980611396
lwrist -4.390310501762493
lhand -23.482161780693943 22.124212984779923
lfingers 7.125019999999946
lthumb 2.9757047519105715 52.056098471445225
rfemur -23.285910394666796 4.755808817633628 31.09797230957686
rtibia 52.84797865038348
rfoot -8.41826285982285 -8.933273987988489
rtoes 7.031367067728839
lfemur -18.47930462409347 1.6871747662436771 -22.107557727148052
ltibia 43.19383478288864
lfoot -6.054230764653561 -9.951445630851902
ltoes -1.0189212539792676
265
root 0 0 0 -2.2933154219654504 -4.249045039414726 0.4640829979303123
lowerback 7.725245410587528 1.425992805434588 -2.6017656956756507
upperback 1.6712497449684607 1.744545194115472 0.0032229454419215875
thorax -2.646674894434457 0.9187289822314109 1.3689071191015767
lowerneck -9.65160037782285 -5.50755616142327 -6.223951373822332
upperneck 31.455873120438923 -8.645574928000542 5.824183460286032
head 11.721792910521847 -3.9374720174528846 1.9242314170659471
rclavicle -9.941095911544107E-16 8.541578290013434E-16
rhumerus -6.868969575434676 0.33408995331074287 -79.16442340159722
rradius 47.67062565893242
rwrist -20.351360136089742
rhand -42.00405463837282 16.371146432330427
rfingers 7.125019999999936
rthumb -14.838398275844895 -13.035263486499066
lclavicle -5.147503033747787E-15 -3.57507346795263E-16
lhumerus -29.9433710707301 10.93907726447693 78.8802762711542
lradius 25.10212049863204
lwrist -4.373704245628369
lhand -23.515739546082248 22.11275979739547
lfingers 7.125019999999946
lthumb 2.9432770029746873 52.04492158644254
rfemur -23.01902863519172 5.296200094037352 31.259172517898396
rtibia 50.09167327843883
rfoot -8.874250627634447 -9.164581616620818
rtoes 6.854149085585558
lfemur -18.534083550343926 1.7478585797429353 -21.78893649140407
ltibia 43.76530952627377
lfoot -5.734642125003502 -10.222609708793568
ltoes -1.5860852329298907
266
root 0 0 0 -2.2957794525267836 -4.214223972590537 0.4631065919975155
lowerback 7.690510770757309 1.4378877101301708 -2.5861596536843767
upperback 1.6756430698434293 1.762696901165584 1.416576245298895E-4
thorax -2.6210032529162364 0.9277817054714401 1.3564586607469926
lowerneck -9.638147627672994 -5.499117426533487 -6.226619473044763
upperneck 31.44688984148652 -8.634578591691566 5.816927738196883
head 11.721666011231632 -3.932511560054629 1.9216670012801842
rclavicle -1.0062362689952673E-15 8.747170905613787E-16
rhumerus -6.6772286601824185 0.16432040816384674 -79.10594410622136
rradius 47.59170859502999
rwrist -20.237217922164646
rhand -42.0403341111801 16.442870982607065
rfingers 7.125019999999935
rthumb -14.871304196447909 -12.959959708564769
lclavicle -5.180052537988671E-15 -3.243814894004838E-16
lhumerus -29.962407499492556 10.972009783504612 78.84107815283043
lradius 25.11073098788337
lwrist -4.361904276180891
lhand -23.562751303843804 22.09623503909157
lfingers 7.125019999999947
lthumb 2.897899866666402 52.028763255804975
rfemur -22.509041144426206 5.7693994255263465 31.559937282565343
rtibia 47.96308511740605
rfoot -9.211113914858668 -9.25337068983655
rtoes 6.967614243723505
lfemur -18.987500872727093 1.9054694238206515 -21.057928884165964
ltibia 45.419791345231644
lfoot -4.75246802234252 -10.578869058659103
ltoes -2.1792258475095347
267
root 0 0 0 -2.3106700989002698 -4.173683795964374 0.4599484066618201
lowerback 7.62629539859583 1.452987271899846 -2.5613734884240436
upperback 1.6741385009352623 1.7867126274157858 -0.0034675124229225363
thorax -2.5838400100805305 0.9395691367677713 1.3384308354455325
lowerneck -9.6268584225266 -5.483872738903477 -6.2234764633540145
upperneck 31.463204688150707 -8.617735400714757 5.787153862092015
head 11.730772266617432 -3.924398194598695 1.910010577219831
rclavicle -1.1406166886421858E-15 9.25964290953326E-16
rhumerus -6.55979205252163 0.05896144015416871 -79.07247251316858
rradius 47.53721123542145
rwrist -20.183761004308323
rhand -42.06051238351895 16.472416626937505
rfingers 7.125019999999935
rthumb -14.88996582223336 -12.927490861371814
lclavicle -5.2839563922265416E-15 -2.4470335324498915E-16
lhumerus -29.989099445028778 11.005533520657307 78.79171999090006
lradius 25.11148660494918
lwrist -4.361629174562686
lhand -23.603264557964923 22.081952531442408
lfingers 7.125019999999947
lthumb 2.8588391997825764 52.014783304535236
rfemur -21.85570855803753 6.177080687754046 31.963405872768323
rtibia 46.25963181287835
rfoot -9.485774303000245 -9.217272489016347
rtoes 7.3309290073594475
lfemur -19.767767451111535 2.173301928296702 -19.93111277320661
ltibia 48.2276892160767
lfoot -3.2752585053533068 -10.853748293204246
ltoes -2.764159882212523
